<svg xmlns="http://www.w3.org/2000/svg" xmlns:xlink="http://www.w3.org/1999/xlink" width="49.50390625" height="23.78997802734375" viewBox="0 0 49.50390625 23.78997802734375" fill="none">
<g >
<path     fill="url(#linear_fill_14_294_0)"  d="M8.13794 22.308L-5.85318e-05 22.308L-5.85318e-05 1.61198L8.13794 1.61198L8.13794 22.308ZM5.12194 18.824L5.12194 5.09598L3.04194 5.09598L3.04194 18.824L5.12194 18.824ZM9.20394 1.81998L14.6119 1.81998L14.6119 -1.90735e-05L17.9399 -1.90735e-05L17.9399 1.81998L23.3739 1.81998L23.3739 5.14798L17.9399 5.14798L17.9399 13.546L19.7859 13.546L19.7859 6.75998L23.0099 6.75998L23.0099 16.718L17.9399 16.718L17.9399 20.462L23.5039 20.462L23.5039 23.79L14.6119 23.79L14.6119 16.718L9.54194 16.718L9.54194 6.75998L12.7659 6.75998L12.7659 13.546L14.6119 13.546L14.6119 5.14798L9.20394 5.14798L9.20394 1.81998ZM34.1379 22.308L25.9999 22.308L25.9999 1.61198L34.1379 1.61198L34.1379 22.308ZM31.1219 18.824L31.1219 5.09598L29.0419 5.09598L29.0419 18.824L31.1219 18.824ZM35.2039 1.81998L40.6119 1.81998L40.6119 -1.90735e-05L43.9399 -1.90735e-05L43.9399 1.81998L49.3739 1.81998L49.3739 5.14798L43.9399 5.14798L43.9399 13.546L45.7859 13.546L45.7859 6.75998L49.0099 6.75998L49.0099 16.718L43.9399 16.718L43.9399 20.462L49.5039 20.462L49.5039 23.79L40.6119 23.79L40.6119 16.718L35.5419 16.718L35.5419 6.75998L38.7659 6.75998L38.7659 13.546L40.6119 13.546L40.6119 5.14798L35.2039 5.14798L35.2039 1.81998Z">
</path>
</g>
<defs>
<linearGradient id="linear_fill_14_294_0" x1="-1.56005859375" y1="-0.77001953125" x2="58.736083984375" y2="29.25396728515625" gradientUnits="userSpaceOnUse">
<stop offset="0" stop-color="#ABBDFF"  />
<stop offset="0.436" stop-color="#3761F5"  />
<stop offset="1" stop-color="#7948EA"  />
</linearGradient>
</defs>
</svg>
