<svg xmlns="http://www.w3.org/2000/svg" xmlns:xlink="http://www.w3.org/1999/xlink" width="79.755126953125" height="11.38494873046875" viewBox="0 0 79.755126953125 11.38494873046875" fill="none">
<g >
<path     fill="#3761F5"  d="M3.84003 11.385C6.13503 11.385 7.57503 10.005 7.57503 8.26498C7.57503 6.62998 6.58503 5.87998 5.31003 5.32498L3.75003 4.64998C2.89503 4.28998 1.92003 3.88498 1.92003 2.80498C1.92003 1.82998 2.73003 1.21498 3.97503 1.21498C4.99503 1.21498 5.80503 1.60498 6.48003 2.23498L7.20003 1.34998C6.43503 0.554977 5.28003 -2.19345e-05 3.97503 -2.19345e-05C1.98003 -2.19345e-05 0.510029 1.21498 0.510029 2.90998C0.510029 4.51498 1.72503 5.29498 2.74503 5.72998L4.32003 6.41998C5.37003 6.88498 6.16503 7.24498 6.16503 8.38498C6.16503 9.44998 5.31003 10.17 3.85503 10.17C2.71503 10.17 1.60503 9.62998 0.825029 8.80498L2.92659e-05 9.76498C0.945029 10.755 2.28003 11.385 3.84003 11.385ZM9.73503 11.19L11.115 11.19L11.115 6.80998L12.93 6.80998C15.345 6.80998 16.98 5.74498 16.98 3.41998C16.98 1.01998 15.33 0.194979 12.87 0.194979L9.73503 0.194979L9.73503 11.19ZM11.115 5.68498L11.115 1.31998L12.69 1.31998C14.625 1.31998 15.6 1.81498 15.6 3.41998C15.6 4.99498 14.685 5.68498 12.75 5.68498L11.115 5.68498ZM21.24 11.19L22.845 11.19L26.34 0.194979L24.93 0.194979L23.16 6.14998C22.785 7.43998 22.515 8.48998 22.095 9.77998L22.035 9.77998C21.63 8.48998 21.345 7.43998 20.97 6.14998L19.185 0.194979L17.73 0.194979L21.24 11.19ZM28.425 11.385C28.965 11.385 29.415 10.965 29.415 10.35C29.415 9.71998 28.965 9.29998 28.425 9.29998C27.87 9.29998 27.435 9.71998 27.435 10.35C27.435 10.965 27.87 11.385 28.425 11.385ZM31.83 11.19L37.86 11.19L37.86 10.05L35.655 10.05L35.655 0.194979L34.605 0.194979C34.005 0.539977 33.3 0.794977 32.325 0.974977L32.325 1.84498L34.29 1.84498L34.29 10.05L31.83 10.05L31.83 11.19ZM43.005 11.385C45.09 11.385 46.425 9.49498 46.425 5.65498C46.425 1.84498 45.09 -2.19345e-05 43.005 -2.19345e-05C40.905 -2.19345e-05 39.585 1.84498 39.585 5.65498C39.585 9.49498 40.905 11.385 43.005 11.385ZM43.005 10.275C41.76 10.275 40.905 8.87998 40.905 5.65498C40.905 2.44498 41.76 1.07998 43.005 1.07998C44.25 1.07998 45.105 2.44498 45.105 5.65498C45.105 8.87998 44.25 10.275 43.005 10.275ZM51.33 11.385C53.415 11.385 54.75 9.49498 54.75 5.65498C54.75 1.84498 53.415 -2.19345e-05 51.33 -2.19345e-05C49.23 -2.19345e-05 47.91 1.84498 47.91 5.65498C47.91 9.49498 49.23 11.385 51.33 11.385ZM51.33 10.275C50.085 10.275 49.23 8.87998 49.23 5.65498C49.23 2.44498 50.085 1.07998 51.33 1.07998C52.575 1.07998 53.43 2.44498 53.43 5.65498C53.43 8.87998 52.575 10.275 51.33 10.275ZM56.145 11.19L63.06 11.19L63.06 10.005L60.015 10.005C59.46 10.005 58.785 10.065 58.215 10.11C60.795 7.66498 62.535 5.42998 62.535 3.22498C62.535 1.27498 61.29 -2.19345e-05 59.325 -2.19345e-05C57.93 -2.19345e-05 56.97 0.629978 56.085 1.60498L56.88 2.38498C57.495 1.64998 58.26 1.10998 59.16 1.10998C60.525 1.10998 61.185 2.02498 61.185 3.28498C61.185 5.17498 59.595 7.36498 56.145 10.38L56.145 11.19ZM67.755 11.385C69.72 11.385 71.295 10.215 71.295 8.24998C71.295 6.73498 70.26 5.77498 68.97 5.45998L68.97 5.38498C70.14 4.97998 70.92 4.07998 70.92 2.74498C70.92 1.00498 69.57 -2.19345e-05 67.71 -2.19345e-05C66.45 -2.19345e-05 65.475 0.554977 64.65 1.30498L65.385 2.17498C66.015 1.54498 66.78 1.10998 67.665 1.10998C68.82 1.10998 69.525 1.79998 69.525 2.84998C69.525 4.03498 68.76 4.94998 66.48 4.94998L66.48 5.99998C69.03 5.99998 69.9 6.86998 69.9 8.20498C69.9 9.46498 68.985 10.245 67.665 10.245C66.42 10.245 65.595 9.64498 64.95 8.98498L64.245 9.86998C64.965 10.665 66.045 11.385 67.755 11.385ZM75.105 11.19L76.53 11.19C76.71 6.88498 77.175 4.31998 79.755 1.01998L79.755 0.194979L72.87 0.194979L72.87 1.36498L78.21 1.36498C76.05 4.36498 75.3 7.01998 75.105 11.19Z">
</path>
</g>
</svg>
