<svg xmlns="http://www.w3.org/2000/svg" xmlns:xlink="http://www.w3.org/1999/xlink" width="143" height="47" viewBox="0 0 143 47" fill="none">
<g >
<path     fill="url(#linear_fill_15_1349_0)"  d="M77.678 11.938Q81.386 11.398 83.366 9.148L78.056 9.148L78.056 6.916L87.164 6.916Q86.498 9.22 85.022 10.858L88.1 12.028L88.1 14.296L83.114 12.46Q80.882 13.918 77.678 14.242L77.678 11.938ZM74.384 6.7L76.742 6.7L74.528 11.848L75.014 12.136L75.734 10.426L77.912 10.426L75.41 16.33L77.372 16.33L77.372 18.652L71.918 18.652L73.754 14.314L71.648 13.144L74.384 6.7ZM71.882 20.47L77.192 19.84L77.192 22.162L71.882 22.792L71.882 20.47ZM77.552 20.488L81.656 20.488L81.656 17.176L78.128 17.176L78.128 14.962L87.704 14.962L87.704 17.176L83.996 17.176L83.996 20.488L88.28 20.488L88.28 22.702L77.552 22.702L77.552 20.488ZM105.218 15.322L105.218 22.756L90.782 22.756L90.782 15.322L105.218 15.322ZM90.908 6.484L93.212 6.484L92.96 7.114L97.622 7.114L97.622 9.058L95.084 9.058L95.084 9.904L98 9.904L98 11.884L95.318 11.884Q95.894 12.316 96.542 12.586Q97.19 12.856 98 13.054L98 15.178Q96.65 14.908 95.705 14.467Q94.76 14.026 93.95 13.162Q93.122 14.026 92.195 14.467Q91.268 14.908 89.9 15.178L89.9 13.054Q90.71 12.856 91.358 12.586Q92.006 12.316 92.582 11.884L89.9 11.884L89.9 9.904L92.78 9.904L92.78 9.058L89.882 9.058L90.908 6.484ZM102.878 20.794L102.878 19.912L93.122 19.912L93.122 20.794L102.878 20.794ZM102.878 18.166L102.878 17.284L93.122 17.284L93.122 18.166L102.878 18.166ZM98.756 7.024L105.65 7.024L105.65 14.584L98.756 14.584L98.756 7.024ZM103.4 12.334L103.4 9.274L101.006 9.274L101.006 12.334L103.4 12.334ZM108.836 12.496Q108.188 12.892 107.792 13.09L107.792 10.462Q108.962 9.832 109.682 8.896Q110.402 7.96 110.924 6.7L114.506 6.7Q115.028 7.96 115.748 8.896Q116.468 9.832 117.638 10.462L117.638 13.09Q117.17 12.856 116.504 12.424L116.504 18.994L112.778 18.994L112.778 16.78L114.398 16.78L114.398 14.206L111.194 14.206L111.194 20.398L117.296 20.398L117.296 22.72L108.836 22.72L108.836 12.496ZM115.766 11.902Q114.254 10.714 113.282 9.04L112.148 9.04Q111.176 10.714 109.664 11.902L115.766 11.902ZM118.232 7.69L120.338 7.69L120.338 19.12L118.232 19.12L118.232 7.69ZM119.762 20.74L121.634 20.74L121.634 6.7L123.884 6.7L123.884 22.9L119.762 22.9L119.762 20.74ZM131.966 20.812Q133.694 20.308 135.17 19.516Q134.054 18.328 133.334 16.861Q132.614 15.394 132.398 13.738L141.902 13.738Q141.47 17.284 138.698 19.678Q140.3 20.65 142.208 20.938L142.208 23.062Q140.822 22.918 139.454 22.387Q138.086 21.856 136.88 21.01Q134.828 22.252 131.966 23.116L131.966 20.812ZM125.828 15.16L127.7 14.692L127.7 11.38L126.008 11.38L126.008 9.112L127.7 9.112L127.7 6.61L130.04 6.61L130.04 9.112L131.48 9.112L131.48 11.38L130.04 11.38L130.04 14.116L131.66 13.72L131.66 16.222L130.04 16.618L130.04 22.9L126.314 22.9L126.314 20.722L127.7 20.722L127.7 17.194L125.828 17.662L125.828 15.16ZM131.948 13.378Q132.704 12.262 133.019 11.083Q133.334 9.904 133.334 8.464L133.334 7.006L141.002 7.006L141.002 10.948L142.082 10.948L142.082 13.108L138.734 13.108L138.734 9.202L135.584 9.202Q135.53 10.336 135.278 11.335Q135.026 12.334 134.504 13.378L131.948 13.378ZM135.062 15.664Q135.728 17.122 136.952 18.346Q138.428 17.158 139.184 15.664L135.062 15.664Z">
</path>
</g>
<path d="M70 5L54.8113 34.1709L48.2075 34.1709L50.0962 25.8982L52.3415 25.8982L59.434 12.7891L54.1509 12.7891L70 5ZM3.30189 6.17091L41.0887 6.23455L39.5038 12.7891L17.8302 12.7891L11.2264 47L6.60377 35.3291L11.2264 12.7891L0 12.5855L3.30189 6.17091ZM45.8566 6.23455L52.3415 6.23455L45.8566 34.1709L39.5038 34.1709L45.8566 6.23455ZM19.0189 17.8291L26.4151 17.8291L25.0943 23.0855L17.8302 23.0855L19.0189 17.8291ZM38.3019 17.8291C38.8434 18.5163 34.333 20.7564 33.6792 20.7564C35.621 20.7564 37.6419 22.4976 36.9811 23.0855L28.4491 23.0855C27.7887 23.0855 28.3966 20.1621 29.1094 19C29.7173 17.8333 35.7264 17.8291 38.3019 17.8291ZM17.1698 27.1709L36.3208 27.1709C37.5226 27.1709 33.0189 35.5455 21.1321 33C17.7113 32.5163 16.6283 30.3018 16.5094 29.8182C16.3905 29.3345 16.3906 27.4255 17.1698 27.1709Z" fill-rule="evenodd"  fill="url(#linear_fill_15_1350)" >
</path>
<g >
<path     fill="url(#linear_fill_15_1351_0)"  d="M72.873 34.44L76.887 34.44L76.887 33.549L73.917 33.549L73.917 31.416L76.347 31.416L76.347 30.534L73.917 30.534L73.917 28.689L76.788 28.689L76.788 27.807L72.873 27.807L72.873 34.44ZM80.199 34.566C80.766 34.566 81.351 34.35 81.81 33.945L81.378 33.252C81.081 33.513 80.712 33.702 80.298 33.702C79.479 33.702 78.903 33.018 78.903 31.965C78.903 30.921 79.497 30.219 80.334 30.219C80.667 30.219 80.946 30.372 81.216 30.606L81.729 29.931C81.369 29.616 80.91 29.364 80.28 29.364C78.975 29.364 77.832 30.318 77.832 31.965C77.832 33.612 78.858 34.566 80.199 34.566ZM84.825 34.566C86.049 34.566 87.147 33.612 87.147 31.965C87.147 30.318 86.049 29.364 84.825 29.364C83.592 29.364 82.485 30.318 82.485 31.965C82.485 33.612 83.592 34.566 84.825 34.566ZM84.825 33.702C84.042 33.702 83.556 33.018 83.556 31.965C83.556 30.921 84.042 30.219 84.825 30.219C85.599 30.219 86.085 30.921 86.085 31.965C86.085 33.018 85.599 33.702 84.825 33.702ZM88.371 34.44L89.406 34.44L89.406 30.93C89.847 30.489 90.153 30.264 90.612 30.264C91.197 30.264 91.449 30.597 91.449 31.452L91.449 34.44L92.484 34.44L92.484 31.326C92.484 30.066 92.016 29.364 90.963 29.364C90.288 29.364 89.775 29.724 89.325 30.174L89.307 30.174L89.217 29.481L88.371 29.481L88.371 34.44ZM93.204 34.44L94.275 34.44L94.833 32.559L97.137 32.559L97.695 34.44L98.802 34.44L96.606 27.807L95.4 27.807L93.204 34.44ZM95.085 31.731L95.346 30.84C95.562 30.12 95.769 29.391 95.967 28.635L96.003 28.635C96.21 29.382 96.408 30.12 96.624 30.84L96.885 31.731L95.085 31.731ZM99.675 34.44L100.719 34.44L100.719 27.807L99.675 27.807L99.675 34.44ZM105.872 34.44L107.105 34.44L109.184 27.807L108.113 27.807L107.141 31.245C106.916 32.001 106.763 32.649 106.529 33.414L106.484 33.414C106.259 32.649 106.106 32.001 105.881 31.245L104.9 27.807L103.793 27.807L105.872 34.44ZM112.01 34.566C112.649 34.566 113.225 34.341 113.675 34.035L113.315 33.378C112.955 33.612 112.577 33.747 112.136 33.747C111.281 33.747 110.687 33.18 110.606 32.235L113.819 32.235C113.846 32.109 113.873 31.911 113.873 31.704C113.873 30.309 113.162 29.364 111.848 29.364C110.696 29.364 109.589 30.354 109.589 31.965C109.589 33.603 110.651 34.566 112.01 34.566ZM110.597 31.515C110.696 30.651 111.245 30.183 111.866 30.183C112.586 30.183 112.973 30.669 112.973 31.515L110.597 31.515ZM115.034 34.44L116.069 34.44L116.069 30.93C116.51 30.489 116.816 30.264 117.275 30.264C117.86 30.264 118.112 30.597 118.112 31.452L118.112 34.44L119.147 34.44L119.147 31.326C119.147 30.066 118.679 29.364 117.626 29.364C116.951 29.364 116.438 29.724 115.988 30.174L115.97 30.174L115.88 29.481L115.034 29.481L115.034 34.44ZM122.315 34.566C122.675 34.566 123.017 34.467 123.287 34.377L123.098 33.612C122.954 33.666 122.738 33.729 122.576 33.729C122.054 33.729 121.847 33.423 121.847 32.829L121.847 30.318L123.134 30.318L123.134 29.481L121.847 29.481L121.847 28.113L120.983 28.113L120.866 29.481L120.092 29.544L120.092 30.318L120.812 30.318L120.812 32.82C120.812 33.864 121.208 34.566 122.315 34.566ZM125.672 34.566C126.347 34.566 126.833 34.215 127.283 33.693L127.31 33.693L127.391 34.44L128.246 34.44L128.246 29.481L127.202 29.481L127.202 32.928C126.797 33.45 126.473 33.666 126.014 33.666C125.438 33.666 125.186 33.324 125.186 32.478L125.186 29.481L124.142 29.481L124.142 32.604C124.142 33.864 124.61 34.566 125.672 34.566ZM129.794 34.44L130.829 34.44L130.829 31.362C131.135 30.57 131.621 30.291 132.026 30.291C132.233 30.291 132.35 30.318 132.53 30.372L132.71 29.463C132.557 29.4 132.404 29.364 132.161 29.364C131.621 29.364 131.099 29.742 130.748 30.372L130.73 30.372L130.64 29.481L129.794 29.481L129.794 34.44ZM135.545 34.566C136.184 34.566 136.76 34.341 137.21 34.035L136.85 33.378C136.49 33.612 136.112 33.747 135.671 33.747C134.816 33.747 134.222 33.18 134.141 32.235L137.354 32.235C137.381 32.109 137.408 31.911 137.408 31.704C137.408 30.309 136.697 29.364 135.383 29.364C134.231 29.364 133.124 30.354 133.124 31.965C133.124 33.603 134.186 34.566 135.545 34.566ZM134.132 31.515C134.231 30.651 134.78 30.183 135.401 30.183C136.121 30.183 136.508 30.669 136.508 31.515L134.132 31.515ZM139.91 34.566C141.134 34.566 141.791 33.882 141.791 33.045C141.791 32.118 141.026 31.812 140.342 31.551C139.793 31.344 139.307 31.182 139.307 30.768C139.307 30.426 139.559 30.156 140.117 30.156C140.513 30.156 140.864 30.336 141.215 30.588L141.692 29.949C141.305 29.634 140.747 29.364 140.09 29.364C138.992 29.364 138.326 29.985 138.326 30.813C138.326 31.65 139.055 32.001 139.712 32.253C140.252 32.46 140.801 32.658 140.801 33.108C140.801 33.486 140.522 33.774 139.937 33.774C139.406 33.774 138.974 33.549 138.542 33.198L138.047 33.873C138.524 34.269 139.226 34.566 139.91 34.566Z">
</path>
</g>
<defs>
<linearGradient id="linear_fill_15_1349_0" x1="71" y1="13" x2="143" y2="13" gradientUnits="userSpaceOnUse">
<stop offset="0" stop-color="#9389FF"  />
<stop offset="1" stop-color="#3761F5"  />
</linearGradient>
<linearGradient id="linear_fill_15_1350" x1="-0.11865234375" y1="25.861083984375" x2="69.88134765625" y2="25.861083984375" gradientUnits="userSpaceOnUse">
<stop offset="0" stop-color="#75D6FF"  />
<stop offset="1" stop-color="#9585FF"  />
</linearGradient>
<linearGradient id="linear_fill_15_1351_0" x1="72" y1="31" x2="143" y2="31" gradientUnits="userSpaceOnUse">
<stop offset="0" stop-color="#8F87FF"  />
<stop offset="1" stop-color="#3B63F5"  />
</linearGradient>
</defs>
</svg>
