<svg xmlns="http://www.w3.org/2000/svg" xmlns:xlink="http://www.w3.org/1999/xlink" width="16" height="16" viewBox="0 0 16 16" fill="none">
<path   fill="rgba(166, 166, 166, 1)"  d="M7.99935 0.666677C9.6562 0.666677 10.9993 2.00982 10.9993 3.66668L10.9993 8.00001C10.9993 9.65686 9.6562 11 7.99935 11C6.34249 11 4.99935 9.65686 4.99935 8.00001L4.99935 3.66668C4.99935 2.00982 6.34249 0.666677 7.99935 0.666677ZM7.99935 2.00001C7.07887 2.00001 6.33268 2.7462 6.33268 3.66668L6.33268 8.00001C6.33268 8.92048 7.07887 9.66668 7.99935 9.66668C8.91982 9.66668 9.66602 8.92048 9.66602 8.00001L9.66602 3.66668C9.66602 2.7462 8.91982 2.00001 7.99935 2.00001Z">
</path>
<path    stroke="rgba(166, 166, 166, 1)" stroke-width="1.3333333333333333" stroke-linejoin="round" stroke-linecap="round"  d="M3 7.66669C3 10.4281 5.23857 12.6667 8 12.6667C10.7614 12.6667 13 10.4281 13 7.66669">
</path>
<path    stroke="rgba(166, 166, 166, 1)" stroke-width="1.3333333333333333" stroke-linejoin="round" stroke-linecap="round"  d="M8 12.6667L8 14.6667">
</path>
</svg>
