<svg xmlns="http://www.w3.org/2000/svg" xmlns:xlink="http://www.w3.org/1999/xlink" width="26" height="26" viewBox="0 0 26 26" fill="none">
<path d="M12.9994 23.8333C18.9824 23.8333 23.8327 18.983 23.8327 13C23.8327 7.01687 18.9824 2.16663 12.9994 2.16663C7.01626 2.16663 2.16602 7.01687 2.16602 13C2.16602 18.983 7.01626 23.8333 12.9994 23.8333Z" stroke="rgba(255, 255, 255, 1)" stroke-width="1.833333333333333" stroke-linejoin="round" stroke-linecap="round" >
</path>
<path d="M12.9993 12.4583C14.4951 12.4583 15.7077 11.2457 15.7077 9.74996C15.7077 8.2542 14.4951 7.04163 12.9993 7.04163C11.5036 7.04163 10.291 8.2542 10.291 9.74996C10.291 11.2457 11.5036 12.4583 12.9993 12.4583Z" stroke="rgba(255, 255, 255, 1)" stroke-width="1.833333333333333" stroke-linejoin="round"  >
</path>
<path    stroke="rgba(255, 255, 255, 1)" stroke-width="1.833333333333333" stroke-linejoin="round" stroke-linecap="round"  d="M5.42871 20.7632C5.61488 17.9404 7.96349 15.7084 10.8335 15.7084L15.1668 15.7084C18.033 15.7084 20.3792 17.9345 20.5708 20.752">
</path>
</svg>
