<svg xmlns="http://www.w3.org/2000/svg" xmlns:xlink="http://www.w3.org/1999/xlink" width="100px" height="60px" max-height="100px"  max-width="100px" viewBox="0 0 3383 2033" fill="none">
<g filter="url(#filter_0_6)">
<path d="M3358 0L2634.8 1377.28L2320.37 1377.28L2410.3 986.693L2517.2 986.693L2854.91 367.756L2603.36 367.756L3358 0ZM182.217 55.2836L1981.41 58.2882L1905.94 367.756L873.972 367.756L559.538 1983L339.434 1431.97L559.538 367.756L25 358.142L182.217 55.2836ZM2208.43 58.2882L2517.2 58.2882L2208.43 1377.28L1905.94 1377.28L2208.43 58.2882ZM930.57 605.716L1282.74 605.716L1219.85 853.892L873.972 853.892L930.57 605.716ZM1848.72 605.716C1874.5 638.164 1659.74 743.925 1628.61 743.925C1721.07 743.925 1817.29 826.135 1785.83 853.892L1379.58 853.892C1348.14 853.892 1377.08 715.869 1411.02 661C1439.97 605.917 1726.09 605.716 1848.72 605.716ZM842.528 1046.78L1754.39 1046.78C1811.61 1046.78 1597.17 1442.18 1031.19 1322C868.31 1299.16 816.746 1194.61 811.085 1171.77C805.423 1148.94 805.425 1058.8 842.528 1046.78Z" fill-rule="evenodd"  fill="url(#linear_fill_0_6)" >
</path>
</g>
<defs>
<linearGradient id="linear_fill_0_6" x1="19.340194702148438" y1="984.9400634765625" x2="3352.340087890625" y2="984.9400634765625" gradientUnits="userSpaceOnUse">
<stop offset="0" stop-color="#75D6FF"  />
<stop offset="1" stop-color="#402CBF"  />
</linearGradient>
<filter id="filter_0_6" x="0" y="0" width="3383" height="2033" filterUnits="userSpaceOnUse" color-interpolation-filters="sRGB">
<feFlood flood-opacity="0" result="feFloodId_0_6"/>
<feColorMatrix in="SourceAlpha" type="matrix" values="0 0 0 0 0 0 0 0 0 0 0 0 0 0 0 0 0 0 127 0" result="hardAlpha_0_6"/>
<feOffset dx="0" dy="25"/>
<feGaussianBlur stdDeviation="12.5"/>
<feComposite in2="hardAlpha_0_6" operator="out"/>
<feColorMatrix type="matrix" values="0 0 0 0 0.2901960784313726 0 0 0 0 0.3568627450980392 0 0 0 0 0.5803921568627451 0 0 0 1 0"/>
<feBlend mode="normal" in2="feFloodId_0_6" result="dropShadow_1_0_6"/>
<feBlend mode="normal" in="SourceGraphic" in2="dropShadow_1_0_6" result="shape_0_6"/>
</filter>
</defs>
</svg>
